HIERARCHY
ROOT Hips
{
	OFFSET -3.958830 18.904000 13.208200
	CHANNELS 6 Xposition Yposition Zposition Zrotation Yrotation Xrotation 
	JOINT LHipJoint
	{
		OFFSET 0.000000 0.000000 0.000000
		CHANNELS 3 Zrotation Yrotation Xrotation
		JOINT LeftUpLeg
		{
			OFFSET 1.800000 -1.400000 0.085000
			CHANNELS 3 Zrotation Yrotation Xrotation
			JOINT LeftLeg
			{
				OFFSET 2.215000 -6.000000 0.000000
				CHANNELS 3 Zrotation Yrotation Xrotation
				JOINT LeftFoot
				{
					OFFSET 2.500000 -6.900000 0.000000
					CHANNELS 3 Zrotation Yrotation Xrotation
					JOINT LeftToeBase
					{
						OFFSET 0.200000 -0.500000 1.950000
						CHANNELS 3 Zrotation Yrotation Xrotation
						End Site
						{
							OFFSET 0.000000 0.000000 0.000000
						}
					}
				}
			}
		}
	}
	JOINT RHipJoint
	{
		OFFSET 0.000000 0.000000 0.000000
		CHANNELS 3 Zrotation Yrotation Xrotation
		JOINT RightUpLeg
		{
			OFFSET -1.800000 -1.400000 0.085000
			CHANNELS 3 Zrotation Yrotation Xrotation
			JOINT RightLeg
			{
				OFFSET -2.215000 -6.000000 0.000000
				CHANNELS 3 Zrotation Yrotation Xrotation
				JOINT RightFoot
				{
					OFFSET -2.500000 -6.900000 0.000000
					CHANNELS 3 Zrotation Yrotation Xrotation
					JOINT RightToeBase
					{
						OFFSET -0.200000 -0.500000 1.950000
						CHANNELS 3 Zrotation Yrotation Xrotation
						End Site
						{
							OFFSET 0.000000 0.000000 0.000000
						}
					}
				}
			}
		}
	}
	JOINT LowerBack
	{
		OFFSET 0.000000 0.000000 0.000000
		CHANNELS 3 Zrotation Yrotation Xrotation
		JOINT Spine
		{
			OFFSET -0.087000 1.940000 -0.288900
			CHANNELS 3 Zrotation Yrotation Xrotation
			JOINT Spine1
			{
				OFFSET 0.000000 1.950000 0.060000
				CHANNELS 3 Zrotation Yrotation Xrotation
				JOINT Neck
				{
					OFFSET 0.000000 0.000000 0.000000
					CHANNELS 3 Zrotation Yrotation Xrotation
					JOINT Neck1
					{
						OFFSET 0.000000 1.600000 0.340000
						CHANNELS 3 Zrotation Yrotation Xrotation
						JOINT Head
						{
							OFFSET 0.000000 1.667000 -0.240000
							CHANNELS 3 Zrotation Yrotation Xrotation
							End Site
							{
								OFFSET 0.000000 0.000000 0.000000
							}
						}
					}
				}
				JOINT LeftShoulder
				{
					OFFSET 0.000000 0.000000 0.000000
					CHANNELS 3 Zrotation Yrotation Xrotation
					JOINT LeftArm
					{
						OFFSET 2.700000 1.550000 -0.730000
						CHANNELS 3 Zrotation Yrotation Xrotation
						JOINT LeftForeArm
						{
							OFFSET 5.450000 0.000000 0.000000
							CHANNELS 3 Zrotation Yrotation Xrotation
							JOINT LeftHand
							{
								OFFSET 3.450000 0.000000 0.000000
								CHANNELS 3 Zrotation Yrotation Xrotation
								JOINT LeftHandIndex1
								{
									OFFSET 0.750000 0.000000 0.000000
									CHANNELS 3 Zrotation Yrotation Xrotation
									End Site
									{
										OFFSET 0.000000 0.000000 0.000000
									}
								}
							}
						}
					}
				}
				JOINT RightShoulder
				{
					OFFSET 0.000000 0.000000 0.000000
					CHANNELS 3 Zrotation Yrotation Xrotation
					JOINT RightArm
					{
						OFFSET -2.700000 1.550000 -0.730000
						CHANNELS 3 Zrotation Yrotation Xrotation
						JOINT RightForeArm
						{
							OFFSET -5.450000 0.000000 0.000000
							CHANNELS 3 Zrotation Yrotation Xrotation
							JOINT RightHand
							{
								OFFSET -3.450000 0.000000 0.000000
								CHANNELS 3 Zrotation Yrotation Xrotation
								JOINT RightHandIndex1
								{
									OFFSET -0.750000 0.000000 0.000000
									CHANNELS 3 Zrotation Yrotation Xrotation
									End Site
									{
										OFFSET 0.000000 0.000000 0.000000
									}
								}
							}
						}
					}
				}
			}
		}
	}
}
MOTION
Frames: 4
Frame Time: 0.016667
-1.144570 16.410230 -2.574570 -4.870363 -15.222439 -10.663750 -15.774648 9.708259 6.527388 30.291587 -1.142730 -36.568883 -56.136378 36.609520 36.487598 2.413720 13.860324 0.258426 -0.280490 -0.535940 -0.280450 18.339325 -6.819583 4.270052 -31.966596 10.209673 -35.561207 37.426135 -27.786092 45.568616 -2.443568 -10.927415 0.599670 -0.819480 0.472720 0.938010 -3.194921 -2.744482 -10.620301 13.919264 -5.074862 65.054743 -8.938771 3.464253 -5.362548 5.478091 3.095306 -15.348921 0.268798 -1.296182 59.054596 -11.555790 1.854420 -35.185180 -20.096937 -18.216329 9.390590 -8.490658 20.167535 -7.421505 -37.115569 -63.107588 19.029524 -3.369185 3.325812 1.173770 -0.112750 0.782260 0.290930 9.247788 19.422080 8.915535 6.788923 -12.533886 -14.351368 110.789163 73.084498 81.879118 2.980680 1.041272 0.044030 0.249510 0.377610 0.250680 
-1.154920 16.317780 -2.553490 -5.382815 -15.155489 -9.789705 -15.786218 9.547464 6.579345 31.361712 -0.521467 -37.018204 -57.514471 37.071254 35.678356 2.388086 13.814869 0.261073 -0.269720 -0.539750 -0.245730 18.366484 -6.666966 4.411250 -33.436655 9.924038 -36.272193 40.662044 -28.842930 43.929270 -2.487495 -10.961968 0.593607 -0.810120 0.446340 0.907190 -3.245315 -2.686654 -10.706610 14.977752 -5.440964 63.221937 -9.248796 3.501884 -4.948044 5.457560 3.255088 -15.967617 0.476852 -1.435040 61.608031 -10.967000 1.790550 -33.697160 -19.798913 -18.412664 9.779648 -7.578157 21.220954 -6.819391 -42.440156 -63.490495 22.469810 -3.359884 3.312604 1.197720 -0.129910 0.782960 0.273720 8.951637 19.495116 9.309991 5.702798 -12.689974 -13.246430 110.135667 72.330463 80.214023 2.975257 0.817846 0.023840 0.258730 0.370120 0.222930 
-1.176370 16.140340 -2.512170 -5.984830 -15.612533 -7.271144 -15.836614 9.247225 6.646258 33.021810 1.096135 -38.225853 -60.425739 37.910209 33.542285 2.370042 13.636821 0.293938 -0.233770 -0.527990 -0.183300 18.410482 -6.258868 4.788760 -36.815344 9.420270 -39.316977 46.948426 -30.937283 41.195364 -2.591923 -11.043714 0.582787 -0.803710 0.383290 0.868990 -3.305916 -2.695624 -10.910094 16.609206 -5.420428 59.291569 -9.489775 3.855682 -5.313169 5.425349 3.025124 -17.286203 -0.583756 -1.305325 66.909417 -9.442930 1.040720 -30.492660 -19.442840 -18.466258 10.467571 -6.915974 22.824677 -5.560418 -49.767090 -62.562641 26.863291 -3.326381 3.291644 1.230720 -0.176150 0.803410 0.256360 8.799256 20.009066 10.112180 3.525423 -12.540835 -10.868084 108.409324 70.876319 77.194282 2.965196 0.427181 0.023570 0.248670 0.338920 0.193290 
-1.184660 16.006470 -2.463300 -6.624866 -16.021630 -5.164230 -15.861903 9.036060 6.719839 34.353731 2.440797 -39.303331 -62.177912 38.853795 32.528933 2.364034 13.540970 0.308506 -0.196320 -0.488970 -0.142970 18.456053 -5.986089 5.011415 -39.166531 8.858306 -41.294936 51.498025 -32.105190 38.765081 -2.636012 -10.982146 0.606727 -0.778400 0.353080 0.822110 -3.395298 -2.705702 -11.028837 18.343250 -5.945897 55.711413 -10.056008 3.862608 -4.858077 5.687929 1.750832 -18.695554 -4.275382 0.665000 70.821473 -7.186610 -0.039320 -27.194810 -18.383492 -18.300918 11.000235 -7.724219 23.908698 -4.939263 -58.297359 -59.551758 30.378085 -3.296918 3.238019 1.234560 -0.207880 0.811160 0.248170 7.478616 20.969280 11.269241 4.173639 -11.890987 -9.444311 104.049223 70.230536 71.216343 2.991167 0.174514 0.027180 0.269240 0.315160 0.189250 
